<svg xmlns="http://www.w3.org/2000/svg" xmlns:xlink="http://www.w3.org/1999/xlink" width="500" zoomAndPan="magnify" viewBox="0 0 375 374.999991" height="500" preserveAspectRatio="xMidYMid meet" version="1.0"><defs><clipPath id="e6fe1dd47e"><path d="M 38.65625 38.65625 L 336.40625 38.65625 L 336.40625 336.40625 L 38.65625 336.40625 Z M 38.65625 38.65625 " clip-rule="nonzero"/></clipPath></defs><g clip-path="url(#e6fe1dd47e)"><path fill="#ffc700" d="M 38.65625 38.65625 L 336.40625 38.65625 L 336.40625 336.40625 L 38.65625 336.40625 Z M 38.65625 38.65625 " fill-opacity="1" fill-rule="nonzero"/></g><path stroke-linecap="butt" transform="matrix(11.91, 0, 0, 11.91, 38.65776, 38.657755)" fill-opacity="1" fill="#ffc700" fill-rule="nonzero" stroke-linejoin="miter" d="M 1.999899 2.50007 L 8.999991 2.50007 M 13.000044 2.50007 L 14.000057 2.50007 M 16.000083 2.50007 L 22.999847 2.50007 M 1.999899 3.500083 L 2.999913 3.500083 M 7.999978 3.500083 L 8.999991 3.500083 M 16.000083 3.500083 L 17.000096 3.500083 M 22.000162 3.500083 L 22.999847 3.500083 M 1.999899 4.500097 L 2.999913 4.500097 M 3.999926 4.500097 L 6.999965 4.500097 M 7.999978 4.500097 L 8.999991 4.500097 M 10.000004 4.500097 L 11.000017 4.500097 M 12.000031 4.500097 L 13.000044 4.500097 M 16.000083 4.500097 L 17.000096 4.500097 M 18.000109 4.500097 L 21.000148 4.500097 M 22.000162 4.500097 L 22.999847 4.500097 M 1.999899 5.50011 L 2.999913 5.50011 M 3.999926 5.50011 L 6.999965 5.50011 M 7.999978 5.50011 L 8.999991 5.50011 M 10.000004 5.50011 L 11.000017 5.50011 M 13.000044 5.50011 L 14.000057 5.50011 M 16.000083 5.50011 L 17.000096 5.50011 M 18.000109 5.50011 L 21.000148 5.50011 M 22.000162 5.50011 L 22.999847 5.50011 M 1.999899 6.500123 L 2.999913 6.500123 M 3.999926 6.500123 L 6.999965 6.500123 M 7.999978 6.500123 L 8.999991 6.500123 M 10.000004 6.500123 L 12.000031 6.500123 M 13.000044 6.500123 L 15.00007 6.500123 M 16.000083 6.500123 L 17.000096 6.500123 M 18.000109 6.500123 L 21.000148 6.500123 M 22.000162 6.500123 L 22.999847 6.500123 M 1.999899 7.500136 L 2.999913 7.500136 M 7.999978 7.500136 L 8.999991 7.500136 M 10.000004 7.500136 L 11.000017 7.500136 M 14.000057 7.500136 L 15.00007 7.500136 M 16.000083 7.500136 L 17.000096 7.500136 M 22.000162 7.500136 L 22.999847 7.500136 M 1.999899 8.500149 L 8.999991 8.500149 M 10.000004 8.500149 L 11.000017 8.500149 M 12.000031 8.500149 L 13.000044 8.500149 M 14.000057 8.500149 L 15.00007 8.500149 M 16.000083 8.500149 L 22.999847 8.500149 M 10.000004 9.500162 L 12.000031 9.500162 M 13.000044 9.500162 L 15.00007 9.500162 M 1.999899 10.499847 L 2.999913 10.499847 M 3.999926 10.499847 L 8.999991 10.499847 M 11.000017 10.499847 L 12.000031 10.499847 M 14.000057 10.499847 L 15.00007 10.499847 M 16.000083 10.499847 L 21.000148 10.499847 M 1.999899 11.49986 L 5.999952 11.49986 M 6.999965 11.49986 L 7.999978 11.49986 M 8.999991 11.49986 L 10.000004 11.49986 M 12.000031 11.49986 L 13.000044 11.49986 M 14.000057 11.49986 L 15.00007 11.49986 M 17.000096 11.49986 L 18.000109 11.49986 M 20.000135 11.49986 L 21.000148 11.49986 M 22.000162 11.49986 L 22.999847 11.49986 M 1.999899 12.499873 L 2.999913 12.499873 M 5.999952 12.499873 L 6.999965 12.499873 M 7.999978 12.499873 L 8.999991 12.499873 M 10.000004 12.499873 L 11.000017 12.499873 M 13.000044 12.499873 L 14.000057 12.499873 M 15.00007 12.499873 L 16.000083 12.499873 M 18.000109 12.499873 L 22.000162 12.499873 M 1.999899 13.499887 L 4.999939 13.499887 M 5.999952 13.499887 L 6.999965 13.499887 M 8.999991 13.499887 L 10.000004 13.499887 M 11.000017 13.499887 L 12.000031 13.499887 M 17.000096 13.499887 L 21.000148 13.499887 M 1.999899 14.4999 L 3.999926 14.4999 M 4.999939 14.4999 L 12.000031 14.4999 M 13.000044 14.4999 L 14.000057 14.4999 M 15.00007 14.4999 L 16.000083 14.4999 M 18.000109 14.4999 L 20.000135 14.4999 M 10.000004 15.499913 L 11.000017 15.499913 M 12.000031 15.499913 L 18.000109 15.499913 M 20.000135 15.499913 L 22.000162 15.499913 M 1.999899 16.499926 L 8.999991 16.499926 M 11.000017 16.499926 L 12.000031 16.499926 M 14.000057 16.499926 L 15.00007 16.499926 M 16.000083 16.499926 L 18.000109 16.499926 M 21.000148 16.499926 L 22.000162 16.499926 M 1.999899 17.499939 L 2.999913 17.499939 M 7.999978 17.499939 L 8.999991 17.499939 M 10.000004 17.499939 L 11.000017 17.499939 M 13.000044 17.499939 L 17.000096 17.499939 M 18.000109 17.499939 L 21.000148 17.499939 M 22.000162 17.499939 L 22.999847 17.499939 M 1.999899 18.499952 L 2.999913 18.499952 M 3.999926 18.499952 L 6.999965 18.499952 M 7.999978 18.499952 L 8.999991 18.499952 M 10.000004 18.499952 L 11.000017 18.499952 M 14.000057 18.499952 L 15.00007 18.499952 M 17.000096 18.499952 L 18.000109 18.499952 M 21.000148 18.499952 L 22.000162 18.499952 M 1.999899 19.499965 L 2.999913 19.499965 M 3.999926 19.499965 L 6.999965 19.499965 M 7.999978 19.499965 L 8.999991 19.499965 M 10.000004 19.499965 L 11.000017 19.499965 M 14.000057 19.499965 L 15.00007 19.499965 M 18.000109 19.499965 L 21.000148 19.499965 M 1.999899 20.499978 L 2.999913 20.499978 M 3.999926 20.499978 L 6.999965 20.499978 M 7.999978 20.499978 L 8.999991 20.499978 M 10.000004 20.499978 L 11.000017 20.499978 M 12.000031 20.499978 L 14.000057 20.499978 M 15.00007 20.499978 L 16.000083 20.499978 M 20.000135 20.499978 L 21.000148 20.499978 M 1.999899 21.499991 L 2.999913 21.499991 M 7.999978 21.499991 L 8.999991 21.499991 M 12.000031 21.499991 L 13.000044 21.499991 M 19.000122 21.499991 L 21.000148 21.499991 M 1.999899 22.500004 L 8.999991 22.500004 M 10.000004 22.500004 L 12.000031 22.500004 M 13.000044 22.500004 L 14.000057 22.500004 M 15.00007 22.500004 L 16.000083 22.500004 M 19.000122 22.500004 L 20.000135 22.500004 M 21.000148 22.500004 L 22.000162 22.500004 " stroke="#000000" stroke-width="1" stroke-opacity="1" stroke-miterlimit="4"/></svg>